# xmcd
#
# Track frame offsets:
# 150
# 15771
# 28093
# 45700
# 60907
# 75153
# 86920
# 103317
# 120527
# 135458
# 150607
# 162118
# 175599
# 190289
# 209778
# 232513
# 268766
#
# Disc length: 3799 seconds
#
#
# Revision: 0
# Processed by: cddbd v1.5.2PL0 Copyright (c) Steve Scherf et al.
# Submitted via: FreeRIP 2.942 
#
DISCID=cd0ed511
DTITLE=div - LOVE CLASSICS OF THE 70's CD 1
DYEAR=2003
DGENRE=
TTITLE0=AL WINSON - SHOW AND TELL
TTITLE1=CLIMAX FEAT. SONNY GERACY - ORECIOUS and FEW
TTITLE2=SAMANTHA SANG -  EMOTIONS
TTITLE3=CISSY HOUSTON - BE MY BABY
TTITLE4=JIM CROCE - I GOT A NAME
TTITLE5=WORLDS GREATEST LOVE BAND - YOU ARE SO BEAUTIFUL
TTITLE6=DAVID SOUL - DON'T GIVE UP ON US
TTITLE7=RAY STEVENS - YOUNG LOVE
TTITLE8=MAC and KATIE KISSON - SUGAR CANDY KISSES
TTITLE9=GARY BENSON - DON'T THROW IT ALL AWAY
TTITLE10=JOHN TRAVOLTA - SANDY
TTITLE11=GUYS and DOLLS - YOU DON'T HAVE TO SAY YOU LOVE ME
TTITLE12=JUDY COLLINS - BOTH SIDES NOW
TTITLE13=KENNY ROGERS - SHE BELIEVES IN ME
TTITLE14=THE CHI-LITES - HAVE YOU SEEN HER
TTITLE15=WORLD GREATEST LOVE BAND - STAIRWAY TO HEAVEN
TTITLE16=STARBUCK - MOONLIGHT FEELS RIGHT
EXTD=
EXTT0=
EXTT1=
EXTT2=
EXTT3=
EXTT4=
EXTT5=
EXTT6=
EXTT7=
EXTT8=
EXTT9=
EXTT10=
EXTT11=
EXTT12=
EXTT13=
EXTT14=
EXTT15=
EXTT16=
PLAYORDER=
